/* XPM */
static char *_c40173e7a834daab32ea2565faef832Sg4zw5rJwGjYL2EN[] = {
/* columns rows colors chars-per-pixel */
"64 64 69 1 ",
"  c #716347",
". c #766849",
"X c #796B4E",
"o c #7D7052",
"O c #8A7957",
"+ c #897B59",
"@ c #90845F",
"# c #958862",
"$ c #9C8B64",
"% c #A49266",
"& c #A6966A",
"* c #AC9B6D",
"= c #B39E6E",
"- c #AF9E71",
"; c #B29F72",
": c #B4A26E",
"> c #B4A273",
", c #BAA675",
"< c #BBA976",
"1 c #B5A57A",
"2 c #BBA779",
"3 c #BEAC7B",
"4 c #C1AE7D",
"5 c #C2B07E",
"6 c #C5B17E",
"7 c #C4B27F",
"8 c #C7B27F",
"9 c #C6B37F",
"0 c #C8B27F",
"q c #BFAE80",
"w c #BFB080",
"e c #C1AF80",
"r c #C3B280",
"t c #C3B282",
"y c #C7B180",
"u c #C4B381",
"i c #C7B481",
"p c #C7B482",
"a c #C9B380",
"s c #C9B480",
"d c #C8B583",
"f c #CBB483",
"g c #CBB583",
"h c #CAB682",
"j c #CCB482",
"k c #CDB682",
"l c #CCB783",
"z c #CFB683",
"x c #C8B587",
"c c #CCB584",
"v c #CDB883",
"b c #CEB982",
"n c #CEB884",
"m c #CEBA84",
"M c #C6B689",
"N c #C8B789",
"B c #C6B88D",
"V c #C9BA8C",
"C c #D0B884",
"Z c #D2BB84",
"A c #D3BC87",
"S c #D4BD86",
"D c #D5BE88",
"F c #D6C085",
"G c #D7C385",
"H c #D7C087",
"J c #D7C088",
"K c #D7C188",
"L c #D6C189",
/* pixels */
"2kkkkkkkjjssccikbskkckssccckcCmmCCmcmCmCbZZCAACCDKKDZZDKKKKKHKHG",
"2kkkkkkcaacsccskmckccccccskcscckkkccksscZ0kackkabcby4mZSSSKKSDKH",
"2ass0000aaaasaaass88isccasscsssaacassssk00454*%2s>%*isslmCCCAAKm",
"2a0a0000ayyyyayyb0888asiyyyayyy8aaacayac00,,ay48s4<4ixlkkkCCmCSC",
";80400008888yy8808880000eyyyyr84555yyiri66877788scysssiisskky4ac",
">40488408888yr5584884040y48yy558888yyyry667775858888iiiisss8=%;a",
";4008844>248858808848844rry58484858yry5y66859988r84888yyycii88aa",
">440348=@$>48885488843444r4y5885854434r35555895555855yy8yiy848yy",
":44484848883y4845844444488844448544445553533355565665666re885888",
":444344y443885888844444434444845848453555355555554445666yyy55844",
"=444444484444444835748484a00044443445338u5y5533535086666yy554444",
">8584455444444444537444444444444884855533333335556484444ryy58040",
">33334445y=X .O=y57344444444485858y44435357733<3,,55666888858004",
"*5r3#oXo+><=%*:43<3744400040553r44444453375337558655656075844480",
">55<$@@#&2445544538440040444443544844yr5335578558979885578555548",
"-333333r333445488r,44<:44444555544844443353577778578555588885588",
"-3333337333373G333333333<235533y333333333rrrr855443553555577i55u",
"-5y335u373333333333333334q53322333333ri5r35334333434455rrr775535",
">5535333333333u3w33i3w3wr4e33333333u33332335344435555iirr5553353",
"*3<33333333ui33u33333333433r3r33333u3w3353r3534575855555533<3353",
">33333333i33i5uu3333333333433qrr3333<33533544545u544885r5573537<",
">333uuwu3373333333333uG3qr4er3q333i35<33333445ry85453<3355555373",
">w7uu3333<333333333333333q43343r333<<,<3348888453<<3<<4557757555",
">3333333<<<333333333333wr3re4<3<<<<3335irrr554433333445537553333",
"-33u3333333333w3r3ww3ww33<<<<<3333wwu3u33<2,<<<3333444557u5u73u3",
"-33333333333iwrutw3333<<><<33wwr78w33<<:::><3<34444444485555u555",
">33333333373w333333<<<<33333trrr33<::<<<<3335333<44r587857853533",
">w3w333u33G3w333<<33333uxwwww3333<<<33333r32333544ryr57553333333",
">3wwww73www333333333wu3w33333<<<3337333w43333y8444sy853<4<<<<<<3",
"1wwww33333333w3333333<<33wwww3333335333343rrr444y533<<334<4<<<<5",
"-33333733333333333w3333w33w3r333333333333e43q34443344<55444<<<<<",
"133ww3333333w3333www33u3w3333<33333337373e3344443344444<44<<4<55",
";433,,4,32233333rrr4<4<34=,=2444534<44<45rrr44r3<3<433333354<433",
"-332242433rqqrrqqq322<,<,44444443333344435e34433<333r3<<<<<<3<43",
"*333444errtr33322222<334444444e45595e544533<<4<3<32332<<<3553443",
";e444444w33<233q3r4rre344444443333<5e4<<33334<2<<,333335555<4334",
";33322,<3q344rrrte33<<2,2,:,2444ee4443433rr333<3333,333rry443344",
"-23e4e4err<45533<2><,,,,,2,4eeie44ee44ry3333<3322<3333wrr4444544",
"-eeyetrr4<2<3312,>2222234e44exr3ee44erq3333333333,333wrrq3444484",
">yeeyr433<,,>><2,32334eieeyatrr5eyq43333<33333<<33,3wr333r444444",
">eere<2,<>>>:<333r3qeyrtieeeye55ee4233333333323re33e3qe435re4444",
";e3<>>:>>2<<33qt3eeMetrqqxieeer34,,2<<,<3333r33334ere32344er4y84",
"-2>>>22<2223qqrerrqrtreeerre33q2,,,2<<333333<r<33r43,,44rrryry84",
"&>><<<<4rqrrrrtqrrrytyeyee3<3322<<<<333333rwr<33e<2<44eeryyrcr44",
"*22333445rcMMMttMtrttrrq44<3232<45rr3r3r3w553333<3<eptreerttrrr3",
";4e444errMtMMMMMtqrrqe44<<4<23reryrrrrttxr5333rrxMiyppptextrrrrr",
";eNeeeNMMMrMMrttq3332233333334erryrrttww33357cwurrcMrerryMiia4rr",
"1yeNNNyBVMMBx33322,,,22q3443qrrqrqwww3q33333uiBBMxrMrrxxMr444<23",
"1eMMMBtMttww3331>13<33wwwe334re423q33<3q43qrrMMMMMtrrrtttw33<333",
"qMMeMtrwqq3313,,3333www3333e3443333243qqr43rMcMMrtttrwrr33e44rwr",
"qNNetr22>22,33233qwwMwtw<3444e4q333qeeexteerrrNrtttMx5c33344qetw",
"-e3q333q3r3<>333wwMMwtxw<4eee43q3q3qir3eepxMrrttttter3333r33e3q3",
"&3qq3erqtq3<3wwrwMttqrrerrr344eq33rMMqqeppMxeBytMt4<3223444,22,>",
"-ceMeeMeqqeqwwwcMttrq3qetr4<3<qqqqMMtMrreeeMMNtttqqq3313,,,:>,,,",
"qBBMMqqe3errrrBwteqrrrqew333eerMwtetttMtrtrtrteyqq22333,22,,=,<<",
";qeqq3qttMqrtwBw4rr4qq33333qrxrrtMttqtttttttye<2123333312,,4=,<<",
">33w2qqqee33eeqe44223eeq3qeeeteeMtxeqesey4ry324,,322<3<2<<3<,,<<",
"-rr3eMqeqq323333224eeeeeqMtMMMMMMNeeeeae44<<,2<<<333r3<34<3<22,,",
"-ttttMqqe33r33qqe32qeeee3eerqtrtqe44rae4,:32,<<233rq3rr54<4<2244",
"-tetttpq33333qqqe44q33e34<23eqe<qee44322><<24444rr3trr444<<3333<",
"1r3erq322433q3e2,33e443243q3<4r3r3y4,4eerr344eeqere444ee44<<3<>,",
"1r4<33224<,23e332qpe44ee3etq344333ee,eN4r5rr44rerte444eti4<,2<24",
";q323q3332234eeeqMBe4eee3rMq44y444e32NaeMxNr44rtMreerrrxe4<,,<22",
"-23qqq333<3eeeeMMMxeeNieetqq4444e<3eqtyerxrryyeeryaerMwr32,,><2<"
};
