/* XPM */
static char *_dde340c82134c9ab01538b779950e467vLxMdFHnFTjG2jy[] = {
/* columns rows colors chars-per-pixel */
"64 64 117 2 ",
"   c None",
".  c #140F0C",
"X  c #1E140E",
"o  c #1B1411",
"O  c #1D1916",
"+  c #22170F",
"@  c #26190F",
"#  c #291A0D",
"$  c #221711",
"%  c #251A12",
"&  c #2B1D13",
"*  c #231D1A",
"=  c #291F19",
"-  c #2E2115",
";  c #27221D",
":  c #2B221C",
">  c #342316",
",  c #392717",
"<  c #3A2917",
"1  c #33261C",
"2  c #392518",
"3  c #37291C",
"4  c #3B2A1E",
"5  c #272321",
"6  c #2B2521",
"7  c #2E2824",
"8  c #342B23",
"9  c #3B2D23",
"0  c #332D29",
"q  c #3C3126",
"w  c #36322E",
"e  c #3C342D",
"r  c #373531",
"t  c #3B3532",
"y  c #3D3833",
"u  c #3F3C39",
"i  c #422F1F",
"p  c #492E1C",
"a  c #412F24",
"s  c #423224",
"d  c #42352C",
"f  c #44392D",
"g  c #4C392B",
"h  c #503624",
"j  c #523E2F",
"k  c #403630",
"l  c #453A33",
"z  c #4B3D33",
"x  c #443D3A",
"c  c #493E39",
"v  c #503F33",
"b  c #4C4027",
"n  c #4C4135",
"m  c #4D423B",
"M  c #4F493A",
"N  c #534335",
"B  c #594534",
"V  c #534836",
"C  c #52453C",
"Z  c #594739",
"A  c #55493E",
"S  c #5B4B3D",
"D  c #604F3F",
"F  c #4E4440",
"G  c #524741",
"H  c #554A42",
"J  c #5A4D43",
"K  c #564B48",
"L  c #584D4A",
"P  c #5E5146",
"I  c #545649",
"U  c #5D5149",
"Y  c #5E5751",
"T  c #5D5853",
"R  c #604F42",
"E  c #635245",
"W  c #695543",
"Q  c #6D5A47",
"!  c #63554A",
"~  c #65594D",
"^  c #6A5A4E",
"/  c #775F4E",
"(  c #645A52",
")  c #6B5E53",
"_  c #725F50",
"`  c #6F6054",
"'  c #6D635C",
"]  c #736355",
"[  c #73655A",
"{  c #76695D",
"}  c #7A6A5D",
"|  c #736962",
" . c #7B6D63",
".. c #7E7167",
"X. c #7C726B",
"o. c #7B7671",
"O. c #826A55",
"+. c #866558",
"@. c #837365",
"#. c #8E7966",
"$. c #85776C",
"%. c #87786A",
"&. c #8B7A6D",
"*. c #917D6D",
"=. c #857A74",
"-. c #8B7D72",
";. c #907E71",
":. c #8E8076",
">. c #8C827A",
",. c #918174",
"<. c #92847B",
"1. c #96887F",
"2. c #98887E",
"3. c #9A8C83",
"4. c #A2958D",
"5. c #A79D95",
"6. c #AFA8A2",
/* pixels */
"                                                                                                                                ",
"                                                                                                                                ",
"                    H                                                                                                           ",
"                      G                                                                                                         ",
"                      U G                                                                                                       ",
"                        U G                                                                                                     ",
"                          U U                                                                                                   ",
"                            ! U                                                                                                 ",
"                              ! !                                                                                               ",
"    Z v                         P !                                                                                             ",
"      J C                         P E                                                                                           ",
"        R S n                       P !                                                           A E +.                        ",
"            J H J                   ! P !                                                       C z [ ;.                        ",
"              E P E                   E P !                                                   ! ! E [ #.                        ",
"                  J P J                 E P                                                 W ~ @.                              ",
"                    J L J E               P U                                             W ) @.*.                              ",
"                      R J J P               P P                                         ! ^ &.&.                                ",
"                          L J J R             P U                                     ! ^ &.;.}                                 ",
"          z 3               H L L J             P P                                 W ) &.,.*.                                  ",
"            z q &             J J L J P         E P P                             ! ] -.,.#.                                    ",
"                s =             J J J L L D       C E                         Q ! ^ ,.,.%.E                                     ",
"                  s = &           S H H J L L       N U               Z D W ~ ^ ^ ] &.#.! j                                     ",
"                    a & %           J H J J J P     s H             f b q f P } ] %.&.} B                                       ",
"                        % % &         S J A z C J     9 l     _   n 8 q 8 8 ) &.] ,.&.O.                                        ",
"                          & % &           J C s m J     8 8 8 } ..t l 7 w ) | :.` %.&.                                          ",
"                              % % s         H N q w k   z _ C ~ U 0 F u ( 5...[ n ` #.                                          ",
"                                % = k N       H C k : & k &.[ e 8 8 0 u o.4. .V : [                                             ",
"                                    % = d       C 8 & - v { C d M e 8 r T ~ ( m e }                                             ",
"                                      # & l N     @ $ 8 l n % 8 w u 7 5 5 t Y K m C C A C N N C Z Z                             ",
"                                          % = %     & t ; 1 - 8 w y 0 ; 0 1 ; 8 d f l z c m m m m m m m N N C V S               ",
"                                            # $ @   i f q X 1 6 5 7 7 l ~ P P d 3 1 > 2 s   C C N C m N m m m m m m N N N C Z V ",
"                                              & $ % N ^ A $ w 5 * ; ; 7 m U P !                         C N m N c m c m m c m c ",
"                                                & 1 J R : = k 8 o d 9 : 6 z M C H D S                               V N N m C c ",
"                                                  N J H 9 a ) | ; C ; w l 9 e m G H H S S                                     N ",
"                                                  m 0 5 : v -.-.J n o r P Z < 1 s m C G A H S                                   ",
"                                                m 0 7 5 k ) <.;.] 8 . w m         s A A G C A S                                 ",
"                                              n C d 3 l ' =.3.-.G 7 o 7 0               A C G C C H                             ",
"                                            f 7 d Z H $.3.3.<.! 0 r 6 * ; 0 z               A G G C G A                         ",
"                                          z 7 8 q A -.4.3.;.( 9 7 r 7 3   - 0 m H H D         Z A C C C A H                     ",
"                                        D w ; 1 n $.4.4.=.G 1 l 6 * ; k       3 g A H H J J       A C G C m A S                 ",
"                                        z ; w H $.4.4.>.K x w ) 0 : 1 8 z E     < 3 k C H H H D       C G C G C A S             ",
"                                      / e L  .&.3.4.1.L c K ) ;.v 9     9 C A n       9 z A H H J S     S C C C C C A S         ",
"                                      A ) &.,.,.;.=.L F F | 6.=.s         9 M J H N         z C H H S       Z G m C G G A       ",
"                                    W J &.:.:...K 0 x c L K  .+.N           3 l H H N d       a k C H H J       A G m G C A A Z ",
"                                    N } -.} W 0 O O x F ] z ^ E               2 d H H H N         4 d C H H S       A H m G m G ",
"                                    N { ~ h 2 * O * t L } d A 2                   g H H H H           1 e C H H S     Z A C C F ",
"                                    d ~ I p & * O O t ] ] 9 4                         J H H H R         & 1 d C H H S     A A m ",
"                                      E U 4 O * * $ l %.^ v                             J H H H J           & : k m H S J     C ",
"                                      Z J : o * * : J @.)                                 S H H H L             % - d m H H     ",
"                                        N 6 O 6 c ! / B                                       L H H H R             % 1 d F H A ",
"                                          q z ! ! ^                                             S H H A J             % + = e m ",
"                                          E ! 0 y X.                                              H H H H J               # + ; ",
"                                          ..m 0 | =.                                                S H H H H D               @ ",
"                                        H ' l ..=.                                                    S H H H H S               ",
"                                          z ..>.                                                          H H H H H             ",
"                                            '                                                               J H H H J           ",
"                                                                                                              G H H H H G       ",
"                                                                                                                m J H H G G     ",
"                                                                                                                  m H H G L G   ",
"                                                                                                                      H H H H H ",
"                                                                                                                        H H H H ",
"                                                                                                                          G L H ",
"                                                                                                                            F G ",
"                                                                                                                              u "
};
