/* XPM */
static char *_301546d2b884f42ee2ad8f0008b0310eKFdz17iR6lwatEf[] = {
/* columns rows colors chars-per-pixel */
"64 64 197 2 ",
"   c None",
".  c #0F1111",
"X  c #131515",
"o  c #1B1C1C",
"O  c #171818",
"+  c #2D211E",
"@  c #33221D",
"#  c #1F2122",
"$  c #222324",
"%  c #2D2422",
"&  c #2C2926",
"*  c #27292A",
"=  c #2B2B2C",
"-  c #25272A",
";  c #352621",
":  c #3B2A25",
">  c #322E2B",
",  c #3A2A25",
"<  c #2D2E31",
"1  c #312E31",
"2  c #333335",
"3  c #3A3633",
"4  c #35373A",
"5  c #3B363B",
"6  c #36393D",
"7  c #3C3A3D",
"8  c #39312D",
"9  c #422D25",
"0  c #432F29",
"q  c #44322D",
"w  c #4B362D",
"e  c #4E352B",
"r  c #443531",
"t  c #4A3731",
"y  c #423A35",
"u  c #4C3A33",
"i  c #443E3A",
"p  c #523D36",
"a  c #5A3B30",
"s  c #53362D",
"d  c #45413C",
"f  c #4A433E",
"g  c #53423C",
"h  c #5A453D",
"j  c #63493F",
"k  c #69493C",
"l  c #3C3D42",
"z  c #413F44",
"x  c #434344",
"c  c #4C4644",
"v  c #4D4945",
"b  c #43454B",
"n  c #4A474A",
"m  c #45484E",
"M  c #4C4B4D",
"N  c #594743",
"B  c #524B46",
"V  c #534E4A",
"C  c #5D4943",
"Z  c #55514D",
"A  c #5B534E",
"S  c #464A51",
"D  c #4B4D54",
"F  c #4B4F58",
"G  c #534F50",
"H  c #4E5157",
"J  c #4E525A",
"K  c #535354",
"L  c #5A5653",
"P  c #5E5955",
"I  c #52555B",
"U  c #595758",
"Y  c #55595E",
"T  c #5B5B5C",
"R  c #644E44",
"E  c #6B4C40",
"W  c #61534C",
"Q  c #6D5549",
"!  c #625B56",
"~  c #635E5B",
"^  c #645B56",
"/  c #785446",
"(  c #65605C",
")  c #6B635C",
"_  c #71675F",
"`  c #565A62",
"'  c #5A5D63",
"]  c #585F68",
"[  c #525760",
"{  c #605F61",
"}  c #5D6166",
"|  c #5E636A",
" . c #646363",
".. c #6A6562",
"X. c #6D6965",
"o. c #61656C",
"O. c #64696F",
"+. c #6B6B6B",
"@. c #686768",
"#. c #716761",
"$. c #746B64",
"%. c #7A6E66",
"&. c #736E69",
"*. c #796F68",
"=. c #777167",
"-. c #75716C",
";. c #7B736C",
":. c #7E786F",
">. c #787167",
",. c #616770",
"<. c #656A72",
"1. c #6A6E74",
"2. c #6A6F78",
"3. c #6C7176",
"4. c #6D737B",
"5. c #737373",
"6. c #7A7572",
"7. c #7D7974",
"8. c #71767C",
"9. c #73797E",
"0. c #7B7B7C",
"q. c #825D50",
"w. c #8C6656",
"e. c #936E5E",
"r. c #82766E",
"t. c #82786F",
"y. c #8E7164",
"u. c #977665",
"i. c #817771",
"p. c #837C74",
"a. c #897E75",
"s. c #827E7A",
"d. c #887F79",
"f. c #866D62",
"g. c #A57D6C",
"h. c #868076",
"j. c #898077",
"k. c #85827B",
"l. c #8C847C",
"z. c #8E897E",
"x. c #91867D",
"c. c #918A7F",
"v. c #9B8779",
"b. c #AC836F",
"n. c #AB8877",
"m. c #B98D79",
"M. c #B8927C",
"N. c #C49076",
"B. c #747C83",
"V. c #757B82",
"C. c #7D8286",
"Z. c #848584",
"A. c #8B8681",
"S. c #8E8A82",
"D. c #868B8D",
"F. c #938C83",
"G. c #998E86",
"H. c #948E89",
"J. c #988F89",
"K. c #969186",
"L. c #999187",
"P. c #95918B",
"I. c #9B948B",
"U. c #9E998E",
"Y. c #8C9397",
"T. c #9B9691",
"R. c #9E9B92",
"E. c #979897",
"W. c #838B92",
"Q. c #A78E80",
"!. c #A19A8F",
"~. c #BA9583",
"^. c #BB9B8C",
"/. c #A19C93",
"(. c #A4A296",
"). c #ABA49C",
"_. c #A8A499",
"`. c #9C9FA0",
"'. c #9FA1A2",
"]. c #A5A6A2",
"[. c #ABA9A3",
"{. c #A7A9AA",
"}. c #AEB0AF",
"|. c #B0B3AF",
" X c #B4B6B5",
".X c #C59E89",
"XX c #CA9D85",
"oX c #CBA38B",
"OX c #D6A488",
"+X c #CEA390",
"@X c #D4AD9B",
"#X c #D5AB9A",
"$X c #E5B99D",
"%X c #D9B3A1",
"&X c #E0BCA5",
"*X c #EAC5AC",
"=X c #EDC9B1",
/* pixels */
"                                                            g p s e w w q w g h R                                               ",
"                                                      N g u 0 9 : : : : : 9 0 0 r u c                                           ",
"                                                    C g u q : : p h Q / k k e 0 0 q r r                                         ",
"                                                p p p t q t R f.^.%X@X+XM.e.k e 9 9 t u g N                                     ",
"                                              r q : 8 : ; q E y.~.#X%X#XM.u./ a 9 @ ; , ; > r                                   ",
"                                              r : ; @ @ @ e k w.b..X%X#Xb.w.k s 9 , ; + % ;                                     ",
"                                                ; , u R e.n.oX@X&X*X=X&X.Xg.q.k E p 9 9 9 q                                     ",
"                                                    Q u.oX&X*X=X*X&XOXXXOX.XXXXXn.y.R z c                                       ",
"                                                        :.h.v.v.m.m.N.N.XXOXXX~.Q.v.p.6.6.-.                                    ",
"                                                    } Y K Z K K ~ #.%.r.a.i.$.) ~ ~ T { { +.5.                                  ",
"                                              ` ' ' Y J n x d l z n G ! ..~ K b n D D I ' ,.+.1.8.                              ",
"                                      K ` ' | | ,.| ` H l < < < 1 2 5 z V D b S J ] { { { ,.,.<.1.O.~ U K K                     ",
"                                 .+.6.4.<.,.| | <.,.| ` D b 6 2 2 2 2 4 b H ' | ,.,.,.,.,.{ ' ' ~ @.&.+.' T ' } @.              ",
"                               .0.Z.D.D.4.,.<.,.2.2.3.<.| ` ] } <.o.I S D D J J ' ' ' ` ` F l z P &.6.5.T I I T O.1.5.          ",
"                               .6.s.A.Z.2.2.B.B.4.B.4.3.O.| <.3.1.o.` I ` ` [ J S F [ ' [ z 2 5 L X.&.@.T D M D U T {           ",
"                               .&.5.6.9.2.<.2.4.4.4.3.2.O.O.<.<.o.{ ` [ [ [ J F S S m S F z < * d Z ) X.~ L G G L T  .          ",
"                                z.k.5.+.3.2.3.4.4.2.<.<.,.,.<.O.| Y I I J J F F D S S m m 6 # O o 3 ( :.h.k.z.h.7.9.7.0.        ",
"                              K.z.h.-.+.4.8.B.3.4.2.2.2.<.<.<.<.o.} } Y Y I J J J J J H S l < o X & ! h.K.U.z.7.@.( 5.0.        ",
"                              S.h.:... .<.2.<.<.<.2.C.4.4.<.] [ J J J H S F F H D H H D b 6 # o X + Z =.k.z.z.7.-.-.0.C.0.      ",
"                              &.T L Z K } O.<.<.,.<.4.C.4.<.[ S b x b m S H H S D D H m 6 * o X O # x   z.z.h.-. .T T  .+.5.    ",
"                              } n x b K o.3.3.4.2.4.C.C.4.<.] Y J H H H F F S S J D S l < # O O # *       ( P ~ X.6.s.l.z.S.T.  ",
"                            E.6.L M Z T 1.8.3.3.4.4.4.2.2.,.| } ` J H m b m m H J H S 7 # o O o *           x n K ( ;.k.l.S.k.Z.",
"                           X|.].P.0.-.&.7.s.-.3.B.C.C.C.<.| J m l < - # # # * < 2 2 2 1 + # # *             K G V A ) =.;.;.&.&.",
"                          [.].[.{.].E.P.P.s.+.+.2.4.<.4.<.| ` J S b m m S b l 4 < * - # X X #               k.z.K.I.L.G.G.G.J.  ",
"                        R.R.E.I.P.T.].}. X`.0.3.9.9.2.<.<.<.<.<.] ] | ] [ F b l 2 < = # O . O o         I.I.U.I.U.I.I.I.I.I.    ",
"                      R.I.K.S.k.k.k.    {.{.'.'.`.Y.C.9.| Y J J [ [ Y H b 4 * = 3 4 * o X X O # 7 @.F.I.I.L.I.L.G.G.H.G.        ",
"                  (./.T.I.H.S.l.          K G } C.Y.Y.W.C.<.Y S b l 6 2 * * < 4 l 4 $ o # & 3 V -.A.L.I.T.T.I.I.I.L.            ",
"                /.T.U.H.p.7.s.l.        K S d V X.5.8.4.| } } Y Y S 7 2 2 3 v K U L Z ! -.z.z.K.c.G.I./.T./.T.                  ",
"                P.S.S.k.-.#.            3.o.Y Y Y } O.<.<.| ` Y @.+.@...( &.s.S.K.K.K.K.I.L.L.F.x.j.j.j.G.                      ",
"              A.&...$.&.-.                s.5.+.o.| <.9.C.C.4.<. . .-.p.h.0.5.0.s.k.7.:.>.;.;.r.a.l.G.L.                        ",
"              I.l.:.) ! Z B               R.R.P.Z.9.4.9.C.C.<.,.@.+.7.h.h.h.7.:.&.+._ ) _ _ $.r.x.G.G.F.                        ",
"                      L Z               )._./.E.K.Z.9.9.B.4.] [ S M U ) -.p.t.:._ ) _ %.r.a.x.G.!./.).).                        ",
"                                        (.R.U.K.k.h.0.+.@.Y S x l 7 5 i V A A ! _ :.h.h.h.j.l.G.U._.).[.                        ",
"                                        (.U.K.z.h.:.;.=.+.( Y Z M v B B c N ) ;.h.z.l.l.l.l.l.c.L.I././.                        ",
"                                      [.(.(.K.z.l.h.:.=._ ( A A P ! ! ^ ( $.j.c.c.c.z.z.z.z.c.G.L.!./././.                      ",
"                                      (.(.R.U.K.z.h.h.-.) A d r r d A #.h.c.K.K.I.K.K.K.l.t.:.;.;.i.F.I./.                      ",
"                                      z.H.H.S.z.k.k.h.:._ A f 8 > 3 Z :.j.c.c.K.I.K.z.:.X.( { T U ~ ;.l.G.                      ",
"                                      3.7.7.7.7.7.:.=.X.( V d y d d     z.z.K.c.K.x.h.=.( K D K U @.t.l.G.                      ",
"                                      5.7.h.h.;.=._ ( P Z v d d d f         c.c.c.c.l.7...K M M L ..d.G.K.                      ",
"                                      5.7.7.:.;.) ! A V f d d d v           c.K.K.c.x.p...Y M D T -.l.I.I.                      ",
"                                      8.5.5.:.=.) A h f d d c v                 K.F.z.h.@.I M K ~ -.l.I.!.                      ",
"                                      0.5.-.=.X.) A f d y d B                   U.P.K.k.X.T K K ..:.F.L.L.                      ",
"                                      Z.k.h.;.X.( A f i d f Z                     R.U.S.6.X...X.i.l.l.d.i.                      ",
"                                    S.z.k.7.=.) V f d f h A                       P.H.z.p.i.6.i.l.F.F.x.p.                      ",
"                                    5.-.+.) P V i 3 3 f ^ &.                        :.+.) ~ P ~ ~ X.6.d.F.                      ",
"                                    } T J b 7 < & & 8 f ~                           K M z l 5 5 i n ! $.l.                      ",
"                                    C.+.L l 2 & % > i V _                             x 7 5 5 5 i B ^ %.l.!.                    ",
"                                    S.k.-.) P Z A ! ) %.i.                              $...! ! ~ #.6.d.F.I.                    ",
"                                    J.H.l.k.:.*.) #.;.t.p.                              S.k.7.-.&.;.6.l.x.G.                    ",
"                                      H.S.s.=.) ^ ) ;.i.l.                              K.S.l.h.p.6.i.p.x.G.                    ",
"                                    G.F.j.:.$.) ! ) %.i.d.                              T.U.U.K.c.l.l.l.G.G.                    ",
"                                    J.F.l.a.>.#._ _ *.;.a.                              /.!.U.K.F.l.l.l.x.F.I.                  ",
"                                    K.F.l.a.;.#.) _ r.a.l.                              U.U.U.K.l.a.a.a.x.F.G.!.                ",
"                                      G.z.j.;.$._ _ %.r.x.G.                          /.U.U.K.z.j.a.a.l.x.G.I.I.                ",
"                                      H.F.z.p.i.*.$._ ;.a.A.G.                        /.!.U.K.c.j.a.h.l.c.G.!.                  ",
"                                        H.l.p.=.) ^ ) _ r.a.x.                        I.I.L.G.l.i.:.;.t.x.G.!.                  ",
"                                        L.F.p.;.) W W ^ %.p.l.                        L.G.F.l.h.r.*.#.*.a.x.!.                  ",
"                                      L.G.H.x.d.;.%._ $.%.*.d.x.                        K.G.z.l.p.i.i.a.l.G.                    ",
"                                    H.J.K.F.A.l.j.d.t.*.#.*.p.A.F.                    G.K.K.H.c.l.l.l.A.c.G.                    ",
"                                0.;.X...&.:.l.l.l.t...! P ~ X.;.                    l.A.S.G.F.K.J.L.I.I.Q.!.                    ",
"                        x M P @.&.$.( ! A A A P L L L Z L P @.                      p.i.i.p.d.d.d.d.A.F.J.T.                    ",
"                        4 2 2 i c K L P P P                                         A.A.H.J.T.I.I.F.i.*.&.6.                    ",
"                                                                                  6.6.s.A.H.T.T.J.A.s.8.                        ",
"                                                                                m z l z z H ' { { {                             "
};
