/* XPM */
static char *ba41b109c5fa4d659f376ac4e895abcfNrkcRHFVHhQllTph[] = {
/* columns rows colors chars-per-pixel */
"24 64 177 2 ",
"   c None",
".  c #161717",
"X  c #161817",
"o  c #171819",
"O  c #1A1B1C",
"+  c #2C1E19",
"@  c #1E201F",
"#  c #20201F",
"$  c #2B201D",
"%  c #38241D",
"&  c #1E1F23",
"*  c #242425",
"=  c #2C2926",
"-  c #2B2B2D",
";  c #25272A",
":  c #352722",
">  c #3A2722",
",  c #342823",
"<  c #392924",
"1  c #37332F",
"2  c #2C2E32",
"3  c #302E30",
"4  c #333235",
"5  c #35373B",
"6  c #39373D",
"7  c #373839",
"8  c #3A3A3B",
"9  c #3C3732",
"0  c #442F29",
"q  c #442E27",
"w  c #44312B",
"e  c #4C362D",
"r  c #483530",
"t  c #433B36",
"y  c #4B3933",
"u  c #463E3A",
"i  c #443531",
"p  c #543E37",
"a  c #523D38",
"s  c #46403C",
"d  c #4A443E",
"f  c #55403A",
"g  c #58433C",
"h  c #654337",
"j  c #6E4A3B",
"k  c #3C3D43",
"l  c #403D41",
"z  c #3F4248",
"x  c #3E4144",
"c  c #434344",
"v  c #4C4541",
"b  c #45464B",
"n  c #4A4749",
"m  c #47494F",
"M  c #4D4B4D",
"N  c #4B4946",
"B  c #524A45",
"V  c #524E4B",
"C  c #55514C",
"Z  c #5B544E",
"A  c #434750",
"S  c #454A51",
"D  c #4B4D54",
"F  c #524F50",
"G  c #4E5157",
"H  c #4E535A",
"J  c #535253",
"K  c #5C5652",
"L  c #5D5854",
"P  c #52555B",
"I  c #595658",
"U  c #5C5B5D",
"Y  c #565B5E",
"T  c #6D5348",
"R  c #6A5248",
"E  c #79574A",
"W  c #625A54",
"Q  c #635D5A",
"!  c #695F58",
"~  c #6B625C",
"^  c #72675F",
"/  c #555A61",
"(  c #595D63",
")  c #595F68",
"_  c #5D6066",
"`  c #5D636B",
"'  c #656463",
"]  c #6B6661",
"[  c #6D6A65",
"{  c #62666C",
"}  c #686768",
"|  c #64696E",
" . c #6B6B6C",
".. c #716661",
"X. c #736B64",
"o. c #796E66",
"O. c #736E6B",
"+. c #7A6F68",
"@. c #777067",
"#. c #76716A",
"$. c #7B746C",
"%. c #626770",
"&. c #656B73",
"*. c #6A6E74",
"=. c #6A6F78",
"-. c #706E70",
";. c #6D7175",
":. c #6C727B",
">. c #747573",
",. c #7B7672",
"<. c #7D7872",
"1. c #72767D",
"2. c #757A7E",
"3. c #7D7D7D",
"4. c #89786F",
"5. c #81756E",
"6. c #947567",
"7. c #837C74",
"8. c #887E77",
"9. c #847E78",
"0. c #897F79",
"q. c #858076",
"w. c #8A8076",
"e. c #86827C",
"r. c #8B847C",
"t. c #8F897F",
"y. c #90877E",
"u. c #9C8778",
"i. c #918A7F",
"p. c #9C8A7F",
"a. c #BC9079",
"s. c #CD997C",
"d. c #737B82",
"f. c #797E82",
"g. c #797F88",
"h. c #878481",
"j. c #8B8681",
"k. c #878885",
"l. c #8D8984",
"z. c #8E8B8A",
"x. c #908781",
"c. c #938C83",
"v. c #998F87",
"b. c #978D88",
"n. c #9A8F8A",
"m. c #969286",
"M. c #999086",
"N. c #94928D",
"B. c #9B948C",
"V. c #9E988D",
"C. c #868D92",
"Z. c #9D9791",
"A. c #9E9A91",
"S. c #92989D",
"D. c #A0978D",
"F. c #BE9888",
"G. c #B39480",
"H. c #A29C94",
"J. c #A3A196",
"K. c #A8A097",
"L. c #A5A399",
"P. c #A9A49A",
"I. c #A9AAA8",
"U. c #A8A9A8",
"Y. c #B3ADA6",
"T. c #B2B5B3",
"R. c #C59D8A",
"E. c #CB9F8B",
"W. c #CAA48C",
"Q. c #D5A387",
"!. c #CDA490",
"~. c #D3AB99",
"^. c #D9B39E",
"/. c #DBB5A4",
"(. c #E7BBA0",
"). c #EAC7B0",
"_. c #F6D2B9",
/* pixels */
"                      f y e f                   ",
"                    g w > > 0 y                 ",
"                    a < g T e w y               ",
"                  a r R /.W.h q f               ",
"                  0 % T ~.R.E % : i             ",
"                  : + R R.F.h % =               ",
"                  < E !.).^.E p <               ",
"                    a._.(.Q.E.6.u               ",
"                    $.u.a.s.W.v.,.              ",
"                    P M ] 4...W Q -.            ",
"                  ( D k n Q F n Y *.2.          ",
"              P ` %.c 2 3 n b ( { %. .J         ",
"             .*.%.&.P 6 3 k ) &.%._ } } (       ",
"            k.f.%.=.{ ) &.S H ) / k X.| P -.    ",
"            0.2.d.d.*.*.{ ( / S / 5 ~ ' D U     ",
"            ,.=.=.=.%.*.) / H A G - C ' V I     ",
"            r. .:.:.` &._ H H S m & 1 q.t.3.    ",
"            q.;.:.:.:.&.` Y H H G ; = m.e.' 3.  ",
"            <.| &.;.1._ H G D G S * @ q.q.<.3.  ",
"            K U &.=.d.P z S S H c O & e.q.I |   ",
"            c U :.:.d._ G G S G 5 . ;   L ,.t.Z.",
"          z.M | :.1.:.` / m D H 4 o     b ~ r.h.",
"          T.q.$.>.g.:.G 2 O ; 5 - *     M C #.O.",
"          U.U.N.} :.=./ A S x - X O     t.V.v.B.",
"          B.N.T.f.1.&.=.` ` b 4 O X   B.V.V.B.  ",
"        Z.t.e.  I.S.&.G ( D ; 5 . . U B.B.c.c.  ",
"      L.Z.l.    G C.C.H k - 4 4 o 7 r.Z.D.B.    ",
"      H.r.7.    N >.%._ M - N C [ M.M.H.Z.      ",
"      c.<.      Y _ %.U ;.' k.V.D.B.w.y.        ",
"    N.] ,.      >._ g.1.~ q.>.e.$.$.r.          ",
"      7.Z       A.2.d.:.-.q.<.[ ~ ^ i.          ",
"        C       J.k.d.` m #.w.~ $.p.P.          ",
"              P.B.7. .S 8 d Z @.r.r.K.Y.        ",
"              P.m.7.O.I B d ~ t.r.y.V.L.        ",
"              P.m.q.X.K Q W t.t.y.c.Z.H.        ",
"              J.V.e.o.u u $.m.B.i.$.7.Z.        ",
"              k.m.e.#.s 1 q.c.B.O.Q U c.        ",
"              >.7.,.~ s s   m.i.] D ~ c.        ",
"              >.7.^ Z s v   i.i.#.M ] B.        ",
"              >.q.~ d s     M.m.#.M O.B.        ",
"              >.<.Z d d       c.>.M O.B.        ",
"              >.#.K t B       B.<.D $.B.        ",
"              k.$.K t         J.q.] r.7.        ",
"              r.#.v v         V.r.7.c.r.        ",
"              #.L 9 C           ..! ] c.        ",
"              G 6 , Z           b 6 l 5.        ",
"              ( 3 = W           l 4 N 7.        ",
"              7.K W $.          O.! ..x.        ",
"              c.7.] 7.          c.<.$.r.        ",
"              c.o.~ r.            r.,.r.        ",
"              r...~ 7.            V.y.i.        ",
"              i.#.X.$.            V.y.r.B.      ",
"              l.+.^ r.          H.m.w.r.M.      ",
"              c.$.^ 8.          V.m.w.y.B.      ",
"              M.0.X.4.n.        H.M.8.c.D.      ",
"              M.7.! +.x.        D.c.$.8.D.      ",
"              N.7.R ^ r.        M.r.o.$.D.      ",
"              B.r.o.X.7.        M.x.7.w.        ",
"              B.l.r.O.r.        c.v.y.x.        ",
"            $.[ r.7.K ..        x.b.D.B.        ",
"        b Q O.Z C K J ]         ,.7.0.b.        ",
"          4 V Q                 b.V.c.O.        ",
"                              <.h.H.z.-.        ",
"                              c k I (           "
};
