/* XPM */
static char *c96fca834a9c4c93c142fec6687473c7cgPb0toLlviwc1av[] = {
/* columns rows colors chars-per-pixel */
"64 64 243 2 ",
"   c None",
".  c #55574B",
"X  c #53554A",
"o  c #666958",
"O  c #77775A",
"+  c #6C735B",
"@  c #6F7362",
"#  c #777A64",
"$  c #6B6E62",
"%  c #5B654A",
"&  c #C75836",
"*  c #D15A37",
"=  c #CD6A3C",
"-  c #CD713E",
";  c #867B5A",
":  c #BB6B56",
">  c #B8684D",
",  c #837E63",
"<  c #8E7967",
"1  c #937C6C",
"2  c #907F70",
"3  c #AF7968",
"4  c #BE5442",
"5  c #CA5D43",
"6  c #D45D41",
"7  c #C96747",
"8  c #D7674A",
"9  c #CB7748",
"0  c #D37B48",
"q  c #C86B55",
"w  c #D86C52",
"e  c #CB7956",
"r  c #D77757",
"t  c #E2694D",
"y  c #E1784C",
"u  c #E56D54",
"i  c #E57559",
"p  c #F5785B",
"a  c #C87867",
"s  c #D57A69",
"d  c #CD7F72",
"f  c #EE7A62",
"g  c #7D8568",
"h  c #88815E",
"j  c #888567",
"k  c #858974",
"l  c #978A77",
"z  c #8B9678",
"x  c #9D9B7D",
"c  c #97947A",
"v  c #908A6B",
"b  c #BA8574",
"n  c #A19E7E",
"m  c #AF8471",
"M  c #AEA77B",
"N  c #D28544",
"B  c #D3844C",
"V  c #D68A49",
"C  c #DB944C",
"Z  c #DB9847",
"A  c #CC845C",
"S  c #D78857",
"D  c #DD9C53",
"F  c #DB9458",
"G  c #CF8244",
"H  c #E19E4B",
"J  c #E29A59",
"K  c #EB8A58",
"L  c #DEA553",
"P  c #E2A34A",
"I  c #E5A848",
"U  c #E3A354",
"Y  c #E8AA58",
"T  c #EBB454",
"R  c #ECB55C",
"E  c #F2BA5B",
"W  c #EAB150",
"Q  c #CD8464",
"!  c #D78A67",
"~  c #DB9468",
"^  c #CA8576",
"/  c #D98774",
"(  c #CC957B",
")  c #DA9877",
"_  c #E88767",
"`  c #E39869",
"'  c #EB8C72",
"]  c #D4AF72",
"[  c #E6A669",
"{  c #EAB668",
"}  c #F2B96C",
"|  c #EBB873",
" . c #F4BB75",
".. c #ECAB70",
"X. c #F5C275",
"o. c #F7C26F",
"O. c #9A9A84",
"+. c #8D9783",
"@. c #B98D82",
"#. c #A69183",
"$. c #A69A88",
"%. c #B4998A",
"&. c #B89C93",
"*. c #AC958C",
"=. c #9CA495",
"-. c #9CA48E",
";. c #A3A284",
":. c #A4A38C",
">. c #ABAA8D",
",. c #A8A789",
"<. c #B4AC8C",
"1. c #A4A493",
"2. c #ACAB93",
"3. c #ACAD9A",
"4. c #A5A895",
"5. c #B3AA97",
"6. c #ADB199",
"7. c #B4B394",
"8. c #B4B49C",
"9. c #BCBA9D",
"0. c #B9B69B",
"q. c #B3B28F",
"w. c #BBADA4",
"e. c #B4AAA4",
"r. c #AEB5A3",
"t. c #B3B5A2",
"y. c #B4BAA4",
"u. c #BCBCA3",
"i. c #B6BBAA",
"p. c #BBBEAC",
"a. c #B9B3A5",
"s. c #B8BDB4",
"d. c #ADB4B0",
"f. c #C78D83",
"g. c #C79388",
"h. c #D69785",
"j. c #C49B97",
"k. c #D88F81",
"l. c #E5978A",
"z. c #CAA599",
"x. c #D7A798",
"c. c #C2B99D",
"v. c #D3AE8C",
"b. c #E6AB9B",
"n. c #E4BA99",
"m. c #EDA68C",
"M. c #C8A9A3",
"N. c #D6AAA5",
"B. c #C2BEA4",
"V. c #C3BDAB",
"C. c #C7B3AC",
"Z. c #D8B5AC",
"A. c #CABDB3",
"S. c #C4B9B4",
"D. c #D7BCB6",
"F. c #E7B8A6",
"G. c #BCC1AC",
"H. c #BCC1A3",
"J. c #BDC3B3",
"K. c #BDC4BC",
"L. c #BCC8BA",
"P. c #ADC2BE",
"I. c #DCC595",
"U. c #E5C484",
"Y. c #E7C899",
"T. c #C3C1A6",
"R. c #C4C3AB",
"E. c #C9C6AC",
"W. c #CCC9AD",
"Q. c #C9C7A8",
"!. c #D8C7A9",
"~. c #C4C5B3",
"^. c #CAC4B3",
"/. c #C5C9B4",
"(. c #CCCAB4",
"). c #C2C6BA",
"_. c #C4CABB",
"`. c #CCCCBB",
"'. c #CEC5BA",
"]. c #D2CDB4",
"[. c #D9CCB5",
"{. c #D2CDBA",
"}. c #DBCEBA",
"|. c #DAC4B0",
" X c #CDD1BC",
".X c #CDD0B7",
"XX c #D3D1B5",
"oX c #D4D3BC",
"OX c #DAD5BD",
"+X c #DCDABE",
"@X c #D9D3B5",
"#X c #D2D1AE",
"$X c #E6D0AF",
"%X c #BFC8C4",
"&X c #C4CBC3",
"*X c #C9CCC5",
"=X c #D3CDC2",
"-X c #D5CFC4",
";X c #CBD2C8",
":X c #D5D5C2",
">X c #DAD6C3",
",X c #D6D9C5",
"<X c #DBDAC4",
"1X c #D4D6C9",
"2X c #DBD5CA",
"3X c #D5D9CB",
"4X c #DCDCCB",
"5X c #DCDDD2",
"6X c #DBDFDB",
"7X c #D5DBD5",
"8X c #CCD2D3",
"9X c #E2DDC5",
"0X c #E1DECB",
"qX c #E3D7C5",
"wX c #E2DED2",
"eX c #DDE0CD",
"rX c #DEE1D3",
"tX c #DEE2DB",
"yX c #E4E2CD",
"uX c #E8E4CC",
"iX c #E4E4D3",
"pX c #E9E5D3",
"aX c #E6E9D6",
"sX c #ECE9D5",
"dX c #E5E5DA",
"fX c #E6E9DC",
"gX c #EBEBDC",
"hX c #E9E6DA",
"jX c #EEF0DF",
"kX c #DDE3E2",
"lX c #E3E6E4",
"zX c #E5E9E1",
"xX c #EBECE2",
"cX c #EAEDED",
"vX c #E4E9EA",
"bX c #EEF1E3",
"nX c #F1F4E5",
"mX c #F3F4EA",
"MX c #F6F9EC",
"NX c #F8FAEE",
"BX c #EBEEF1",
"VX c #F6F9F7",
"CX c #EEF1F1",
/* pixels */
"                                                                                                                                ",
"                            tXdXrXrXrXeXeXeX,XeX,X:X:X:X*X&X_._./.).~.~.J.R.~./././..X_..X X                                    ",
"        cXbXbXnXmXmXMXCXmXmXmXbXbXbXjXfXrX3X XJ.G.t.4.+.k # $ $ $ o $ $ @ k +.6.H. XoXeXaXfXjXbXnXnXbXbXjXfXaXrX4X,X_.          ",
"  lXxXbXbXmXmXMXMXMXMXMXmXnXmXbXbXjXfXrXeX:X/.G.8.4.+.g $ . X X X X X X % + k :.H./.oXeXaXaXbXmXNXNXVXNXVXNXMXMXbXgXaX3X/.G.~.  ",
"tXzXzXbXbXbXbXnXnXnXmXmXnXnXbXxXjXfXrXeX3X:X/.H.8.-.+.k + o . X X X X . o @ l :.H.R.oXeXyXaXgXnXmXMXNXNXNXMXmXnXbXjXfXeX:XR.G.  ",
"dXzXxXxXfXjXbXnXbXnXnXbXxXbXbXgXfXaXaXeX,X X/.y.6.-.c k @ o o . . . . o $ # c 1.9./..XeXeXsXgXnXnXMXMXNXMXMXnXbXjXjXaXeX X/.0.  ",
"tXzXfXfXfXjXbXbXnXbXjXaXaXaXrXaXrXaXeXeX,X.X/.y.6.:.O.k # @ $ o o o o o # k O.,.9./.oX<XyXaXgXnXnXMXMXNXMXmXMXbXfXaXeXeXoX.Xq.z ",
"tXzXzXfXfXfXrXeXeX XE.H.H.y.9.9.9.0.9.8.6.2.>.:.;.c z l k j < , g O j j j k v c x ;.,.2.7.u.u.R.(.(.{.oX<X4X<X}.W.H./..XoXXX7.c ",
"  5X;X_.G.i.r.r.y.p.p.G.p.p.i.i.i.i.i.t.3.O.l j h h h h h ; O h ; ; ; h h j v v v z c c x O.$.:.:.$.:.=.=.O.-.O.k j j k c ;.,.c ",
"  ).s.K.s.K.;X;X;X;X*X&X*X&X_._.~.J.p.i.y.0.2.;.n n n n x n n x n x n n ;.;.,.>.7.8.y.u.p.J.J._.&X).&X_.%XL.G.d.=.z g @ g O j   ",
"      *X%XK.K.%X&X_.K.)._.).K.J.s.p.i.i.t.t.3.2.,.;.;.x x x x x x x n n ;.;.:.2.2.6.8.y.i.p.p.J.J.).)._.).J.s.r.4.+.z g j       ",
"      8XP.s.i.P.s.J.J.J.J.K.~.~.~.~.G.p.p.y.u.8.6.7.q.>.M M ,.,.,.M ,.,.>.>.q.6.0.y.y.i.p.p.p.G.J.p.p.y.r.3.4.-.+.z z g g       ",
"      *X%X8XtXkXtXtXrXrX3X3X1X X.X`.(./.R.R.H.u.9.9.7.7.7.q.q.q.q.q.q.q.7.9.9.9.u.H.T.R./._.`. X=X;X,X3X3X;X;XL.6.z g g j       ",
"        7XkX7X7X;X;X_.).~.J.G.i.i.i.y.y.y.8.6.6.6.2.2.>.:.:.>.6.>.>.>.,.,.,.>.2.2.6.6.8.8.0.8.y.y.y.y.y.y.G.G.i.r.-.z k         ",
"    *X&X&X%X&XL.L.&X)./. X_._._./._._././././.R.R./././.~.~.~./.)./.Q.R.J.J././././._.`._._._._._._._.J.J.G.G.H.r.6.-.z z       ",
"  *X%X7XaXfXfXfXfXfXaXaXiXiXeXyXyXeXeXeX<X+X+X<X,X,X4X,XoX<X:X:X,XoX+X,XeX,X,X<X<X<X3X5X5XrXtXtXrXdXiXdXrXaXtXtXaXrX X-.+.z     ",
"  8X8XkXmXjXgXxXfXfXpXpXuXyXiXeX9X9X9X<X+X+X+X+XXX>X>XoXoXoX:X,X:X,X:X:X+XOX:X<X4X3X4XrX5XrX5XiXrXwXdXdXaXhXaXfXfXgX5XG.=.+.    ",
"  kXBXCXnXxXgXgXxXfXhXiXyXhXiX0X9X4X9XeX<X+XoX+XOX>X:X:XoXoX:X,X:X:X:X<XoXoX>X3X3X<X<X3X4X5XeXeX1Xr.wXdXiXhXdXfXhXgXfX7XL.-.z   ",
"  cXVXCXbXjXjXgXgXgXaXyXyXiXrX4X0X9X<X4X4X,X<X,XOX:X:X,X:X:XoXXXoXoXoX:X:X:X<X<X4X2X2X<X4XeXeXiXA.k :XhXhXhXfXgXgXgXxXzX3X/.9.  ",
"  BXVXCXxXjXjXgXfXaXhXyXyXyXrXrX4X<X<X<X,X<X+XoXXXoXOXXXXXoXXXXXoXoXoXoX:X,X,X3X3Xu.:.$.:.1.2.4.j $ c u.V.'._.:XpXgXxXlXeX_.H.  ",
"  cXVXmXxXgXgXsXhXhXiXiXiX5X4X5XoX:X<X,XoX.X:X,XoXOXXX@XXXXXXXXXoXXXXX:X,X1X2X2X,Xa.u.x $.O.x $.1.2.e.u.3.3.5.V.iXfXfXfX7X_.H.  ",
"  cXVXCXjXjXgX0X`.oX(././.R.R.`.0.u.t.8.7.,.R.oXoXoXXX].XX{.XX(..XXX{.oXoX:X,X:XoXu.~.c c :.$.2.~.e.K.S.2.t./.<XiXxXxXzX7X.XH.  ",
"  BXVXnXiXiXiX2X/.R.(.R.R./.u.B.R.p.G.u.0.0.9.T.u.p.u.9.u.9.0.9.9.c.u.u.9.B.B.R.(.0.$.O.c c l O.O.=.1.=.$.3.3.~.<XdXdXzXrX_.H.  ",
"  cXVXgX0X9X4X:X{.oX/.1XiX5X5X<X2X<X,X3X,X,XoXoXoX:XoXoX.X{.oXXX#XXXXXXXoXoXoXoX>XXX(.{.{.`.O., j , , < t.`.(.}.0X4XdXzXeX XH.  ",
"  cXVXxXjXjXpX2X(.oXXX:X3XiX5X0X<X+X<X3X,X,X2X:X:X:XoXoXoX:X:XXXXX#X#X+XoX:X:XoXOX2X<X<X<X4X2X~./.R.R.(.hXfXsXsXgXgXbXzX5X XH.  ",
"  BXVXmXjXgXgXdX^.R.T.G.R.4X5X<X<X+XOX2X:XoX.X{.oX(..X=X`.`.(.(.#XW.Q.#X#X.XXXXXoXXXoXoX2X<X4X0XwXyXuXiXiXhXiXsXgXgXxXzX5X_.    ",
"  BXVXlXwX4X<X:X{././.`.(.`.(.(.E.E.E.R.R.R.R.R.T.V.R.G.B.B.u.u.B.B.9.9.T.T.T.T.T.R.T.E.E.(.(./.{.{.oXXXXXoX:X2X2X2XhXzX3X~.    ",
"  BXVXxXpXpXyXoX:X9XiXiXiX0X<X4X4X+X+X+X<X>X>XoXOXoXXXXXoXXXXXoXXXoXXXXXoXOXoXOX,X<X<X+X+X<XeX+X{.:X:X<XyXiXiXiXpXpXhXtX;Xp.:.  ",
"  BXVXVXgXjXgXpXyXuXuXyXyXeXrXeXeX<X+X<X<X<X>XOXOXoXXXoXoX}.XXXXXXoX,XXXoXoX@X@X>X<X>X+X+X<X0XXXR.u.V.:XpXpXsXaXgXgXgXtX;Xi.x   ",
"  BXVXCXgXsXhXpXpX0XyX<X+X+X+XoXXX.XXX(.(.E.E.E.E.E.E.~.R.T.T.B.T.R.R.T.T.Q.Q.Q.W.(.(.`.XX=X,X>XoX,X:X2X0XuXhXhXhXgXgX5X1Xi.x   ",
"  cXVXwX}.{.E.R.~.B.u.9.7.c.9.9.0.6.5.2.<.>.<.2.,.>.5.>.:.:.:.$.<.7.q.<.<.7.7.7.8.8.t.0.0.a.a.u.B.B.T.B.B.R.R.~./.`.1XtX;Xt.    ",
"  BXCXxXyXpX0XoX{.oX(.W.R.<X<X<X<XR.T.9.9.R.u.9.9.B.R.B.9.8.8.u.{.oXoXoXXXXXXX<X:X>X,X<X4X4X5X0X0X0X0XyXyX0XyXiXwX0XdXtX*Xt.    ",
"  cXCXbXgXgXpX0X<X9X<XW.9.4X4X4X4X<XOX<XoX:X:XXXXX#X#X#X#XoX XoXoXoXoXoXoXoXoX<X,X<X<X<X4X4XeXeXeXiXiXiXpXuXuXsXsXsXxX6X).3.    ",
"  cXCXxXpXiXOXE.R.W.E.c.0.XX{.{..X(.E.E.E.R.R.R.T.T.c.9.9.B.u.u.9.9.9.H.u.R.R.R.^.~.R.E.].`. X XXXXX@XOX>XqX<X0XyXiXdX6X).3.    ",
"  vXCXhX9X9X>X].@X@X@XoXz.n.x.n.x.n.v.v.v.#X{.].]..X(.Q.Q.(._._./././.E.(._./.(..X:X XoXXX!.Y.U.U.U.U.U.Y.U.Y.$X@X+XqX5X_.t.    ",
"  vXBXjXsXsXpXyXyXuXyXeXh.i u u u w t u x.^.w.e.a.e.5.[ !.P.r.i.y.H.L.,XXX;XG.@X3X&XL._.)./.I.X.@XoX,X:X@XY.o.}  .m.F.0X~.3.    ",
"  lXBXxXsXpXXX{.oX0XXX:Xh.u u u t t 8 w D.Z.f./ ^ s 7 * x.4.9 B A C v.2X| J.M Y.J.] T { { { ..$X_.I.I.n.v.' K p p p m.1XS.2.    ",
"  lXBXhXqX>X(.W.{.{.~.V.( u u t t 8 8 8 s &.&.&.&.5.D.e g.d.*.*.*.&.e.@.q p.m v.r.0 0 0 B y y Z.s.C.C.Z.C.' p p p p b.=XV.1.    ",
"  lXBXgXuXuXyXyXyX9X@X(.] R K y u 8 8 8 a d d d d f.8Xd ( =.> & > > 5 & 8 s.: Q S.@.b ^ ^ b s x.S.g.( f./ _ ` ..} } Y._.i.$.    ",
"  vXBXxXsXsXpX0X>X0X^.W.] E E E T Y K S v.&.*.*.*.#.3 5 e < & & & & & & 5 ^ : 7 / j.z.z.M.C.) _ F.#XI.U. .} o.o.o. .Y.:Xp.2.    ",
"  vXBXxXsXpX{.E.^.qX+X+X] { R Y T R E W W W H H Z - - - = = & & & & & & & = = = 0 0 K H J { R } } } } } } } } { } } Y.5X~.5.    ",
"  lXBXdX<XOXE.E.W.].Q.W.] Y [ U J Y U U W W H I W I I I I I Z I Z Z Z Z Z P P I U T T T R { { R { { } ..[ ` [ ` ` ..Y.3X).0.    ",
"  kXBXxXsXyX(.W.XXXXE.XXv.F F S K F B B C J H H H H Z Z Z Z I Z Z Z I I I P P P H I Y J ` U F ~ ` U ` [ F ~ ` _ _ ` n.5X'.u.,.  ",
"  lXBXlXsXpXOXOX9XqXXX@X( r r r 0 B S 0 0 V 0 V V N N N - N N Z Z Z Z Z Z Z V V F J D J S S S A ! ~ ~ S _ ! ! _ _ ` F.yX=XB.    ",
"  kXBXxXpXpXuX+X9X+X9X<X( i u u t t w q 8 8 8 8 8 8 - - = = - - G G N N N N B 0 9 B 0 S r r r i i i i f f f _ _ _ ..F.wX:XB.    ",
"  6XvXhX<X<X+X+XOXXX].(.( u f i t t t u i 8 8 r q w q 8 7 5 = * * = = = 0 0 q & 8 r s r t t i i u f _ ' f p f ' ' ' F.wX>XV.<.  ",
"  6XlXcXjXsXuXqX>XqXW.'.( i N.C.s t / S.N.s N.j.j.&.j.a ^ m * & & * * = h.&.&.s * s A.Z._ t / j.k.Z.N.N.N.l.b.N.F.m.b.sX2XB.<.  ",
"  6XlXcXsXsXOXW.[.9X[.OX( i N.j.N.k.M.@.z.k.s.&.g.f.f.q f.*.* * * * * S e.a ( w.8 s e.^ Z./ k.j.N.h.u f / l.D.b.b.l.b.zX4XR.<.  ",
"  6XkXlX0X9X].].}.XX@X}.( i N.d k.C.a d M.k.0.m m m m > ^ 5.: : : : q C.&.&.%.3.f.s e.q ^ Z.N.z.b.z.s s N.x.D.j.z.k.F.xXwX^.0.  ",
"  6XlXzXuXuX9X9XW.9.W.W.( w h.! F F F F | Y { ] T ] L D C v.c.&.&.@.^ ^ 5 5 5 q f.a f.7 8 d M.b s b.D.D.|.h.b.|.|.m.b.xXwXA.9.  ",
"  6XtXlXsXsXuX9XW.E.Q.B.] R } E E T Y Y Y T T W W T T T I W W L Z V 0 = 5 5 7 8 8 q 9 r S _ [ [ ..}  . .U.X.|  .X. .$XxXrX{.u.  ",
"  tXkXzXsXsXuX+XB.B.B.{.v.E { Y Y Y L D F D D L L L H L L I P P Z H P L D L D Y Y ` R { { } { { } | |  .| | | .. .X.$XbX5X`.u.  ",
"  kXkXlX4X<X+XW.Q.c.0.0.] Y L L J F F B r 9 C C V G G G Z G N Z H Z Z Z L L D D H U Y [ { [ [ { [ [ [ ....[ ....[ } $XzX6X;Xu.  ",
"  kXkXzXpXpXpXpX9X9X9X<Xv.C D ~ F S e 9 9 e 9 9 9 > 9 9 G 9 G G Z N G B C C D C S S F D F ~ ~ [ F ! ~ ~ ) ~ ) ~ ` ` F.zX5X=Xu.  ",
"  kXvXxXsXpXpXuXuX0X9X<Xv.F F S A B q e e 9 9 > 7 > 7 = > = - G 9 9 9 9 V 0 B V B e A S S A ! S r ! ! _ ~ / ~ ` _ ) F.zXtX=X0.  ",
"  kXvXxXsXpXuXuXuX0X<X+Xv.) ! ) ! Q Q ! Q Q ! Q A Q A e A A A A A e A A A Q Q Q a Q ( ! ! ~ ) / ) / ) ) ) ) h.) ) l.$XzXtX*Xt.  ",
"  kXvXxXsXpXpX0X0X0X9X9XqX+X}.+X}.}.}.OX[.}.}.[.[.[.[.|.[.[.[.[.{.}.[.[.}.}.}.>X}.>X}.}.}.qX>XqXqXqXqX0XqXqXqX0XuXuXwXvXwX*X8.  ",
"  6XkXvXsXpXpXpXyXuX0X0X9X4XqX0X2XqXqX<X2X>X<X2X+XOX>X>X2X2X2X>X2X2X>XqX2X>X3XqX4X4XqX4XqX4XwX4XqX0XwXwXpXwXpXpXhXpXdXlX7X).3.  ",
"  8X8XwXhXwXwXqXqX2X2X>X-X-X-X-X=X=X=X=X{.'.'.*XE.^./.^.E.A.A.~.A.A.A.A.^.E.^.'.'.'.'.'.{.=X1X-X2X2X2X2X2XqX2XqX5X5X2X=XK.e.O.  ",
"  '.=X8X2X2X{.^.A.A.C.C.C.a.w.M.w.w.w.e.e.5.&.&.&.*.*.$.#.#.#.#.n #.x #.#.#.*.*.&.5.5.M.w.C.C.S.S.C.C.A.A.A.A.].'.=X=X*Xs.=.k   ",
"  e.3.4.1.1.:.:.,.;.$.$.n n l #.l c #.+.l l 2 2 2 k 1 < 1 < < < < ; < 1 < < 1 1 1 l m l #.#.*.%.%.*.%.%.%.%.%.%.*.$.O.O.k O +   ",
"  O.l < ; , ; j , g j v z z z z z z z z +.z +.z z g z g g g g g j g O # O O O O O O O O ; , < ; ; ; ; ; ; v h v j O + + o o %   ",
"              ;                                                                                                                 ",
"                                                                                                                                "
};
