/* XPM */
static char *d35ee7616e3a4acdc94739454db5e296YmR7LNV2vwiHCaDS[] = {
/* columns rows colors chars-per-pixel */
"64 64 161 2 ",
"   c None",
".  c #231E19",
"X  c #25221C",
"o  c #2D241C",
"O  c #30271D",
"+  c #272521",
"@  c #2A2722",
"#  c #2D2A23",
"$  c #332B24",
"%  c #3A2D24",
"&  c #332E29",
"*  c #3A2F2B",
"=  c #36332D",
"-  c #3B342D",
";  c #3F392F",
":  c #3B3631",
">  c #3E3A33",
",  c #44352C",
"<  c #4B372A",
"1  c #42382E",
"2  c #4D3A2C",
"3  c #423633",
"4  c #443B34",
"5  c #4B3D35",
"6  c #453E39",
"7  c #4C3F38",
"8  c #513C31",
"9  c #46413A",
"0  c #4C423B",
"q  c #4E483E",
"w  c #504037",
"e  c #5A4531",
"r  c #53453D",
"t  c #5A463C",
"y  c #53483F",
"u  c #5C4B3E",
"i  c #614437",
"p  c #654936",
"a  c #604438",
"s  c #644A3C",
"d  c #4C4641",
"f  c #4E4A44",
"g  c #544641",
"h  c #554B44",
"j  c #5A4C45",
"k  c #544E48",
"l  c #5C4E48",
"z  c #535047",
"x  c #5D5046",
"c  c #56514B",
"v  c #5D524B",
"b  c #5B5651",
"n  c #5E5953",
"m  c #6B4E40",
"M  c #614F4A",
"N  c #645244",
"B  c #6D5443",
"V  c #62544C",
"C  c #68564F",
"Z  c #65594F",
"A  c #6B5B48",
"S  c #7D5945",
"D  c #7C5D4E",
"F  c #655651",
"G  c #645B54",
"H  c #6A5C54",
"J  c #635E59",
"K  c #6D5F58",
"L  c #715E57",
"P  c #7B634B",
"I  c #6F6157",
"U  c #65615A",
"Y  c #6B635C",
"T  c #736354",
"R  c #73645C",
"E  c #7C665B",
"W  c #75685F",
"Q  c #78685F",
"!  c #6B6661",
"~  c #6D6963",
"^  c #756760",
"/  c #726B64",
"(  c #7B6C64",
")  c #746E69",
"_  c #796F69",
"`  c #777067",
"'  c #787066",
"]  c #76716A",
"[  c #7B736C",
"{  c #7E7A6F",
"}  c #7C7671",
"|  c #7E7A72",
" . c #855F4A",
".. c #84604B",
"X. c #8C614D",
"o. c #846151",
"O. c #8E6655",
"+. c #826E5D",
"@. c #8E6958",
"#. c #916A57",
"$. c #946D5C",
"%. c #9F6F5A",
"&. c #9D715D",
"*. c #A5755E",
"=. c #816F67",
"-. c #806E69",
";. c #83746C",
":. c #8B776F",
">. c #80796F",
",. c #997E62",
"<. c #867771",
"1. c #8A7772",
"2. c #837B74",
"3. c #8B7C74",
"4. c #847F79",
"5. c #A47661",
"6. c #A87762",
"7. c #AD7964",
"8. c #AD7F6B",
"9. c #868077",
"0. c #888077",
"q. c #86827B",
"w. c #8A837C",
"e. c #8D887E",
"r. c #91847C",
"t. c #B58066",
"y. c #B5856E",
"u. c #BB866E",
"i. c #BC8771",
"p. c #BD8872",
"a. c #B59B79",
"s. c #C38D74",
"d. c #8C8781",
"f. c #8E8A83",
"g. c #918C84",
"h. c #9A8D86",
"j. c #948E89",
"k. c #949087",
"l. c #96938C",
"z. c #9B948C",
"x. c #9C9691",
"c. c #9D9992",
"v. c #A1958D",
"b. c #AC9F8F",
"n. c #A49C93",
"m. c #BCA280",
"M. c #A6A29B",
"N. c #ABA99E",
"B. c #ABA6A1",
"V. c #B2AEA8",
"C. c #C7B091",
"Z. c #D4BDA5",
"A. c #CDBEB2",
"S. c #CEC2B7",
"D. c #DAC4B0",
"F. c #DBC9B7",
"G. c #D1C5BB",
"H. c #D7C7BA",
"J. c #D8C7B9",
"K. c #D4C8C1",
"L. c #D7CCC8",
/* pixels */
"                                                                                                                                ",
"                                    U ] U J ~ n                                                                                 ",
"                                d.} ! n c c k q c f U u N                                                                       ",
"                                f.! J b h k q d f G W u N B B P t.a.m.C.Z.D.F.J.H.                                              ",
"                              2.) Y Y J c k c   Z T T C x 2 < 2 s +.T A N T b.    A.S.G.K.L.                                    ",
"                            ;.( v l k b c c   q w V t < t o.&.6.8.#.p 8 $ =                                                     ",
"                        2.^ H v h f           6 1 7 , 2 #.8.u.p.5.O.i 2 O # $                                                   ",
"                    2.-.^ H l g k             0 0 u 8 s $.$.y.O.D D i 5 o X #                                                   ",
"                  [ ( I H l 0 0 v               , t p *.s.s.s. . .&.s , X . #                                                   ",
"                _ ^ F F c d 6 c                 v V D *.u.s.7.O.X. .p O . +                                                     ",
"                H v k d 0 > 9 q                 _ 3.R o.%.u.t.*.S e < = =                                                       ",
"                G v j 6 4 4 6 9 h 0 U | 9.{   l.q.^ ( Q L E D B w 1 4 4 & :                                                     ",
"                    G v 0 0 0 0 0 6 Y [ 9.d.e.x.c.| U J H H v k 4 * 6 f f f k n !                                               ",
"                      K G h h g g 7 b ) c.M.M.M.B.M.f.9.4.[ ~ c d f n J b U n J ) ! ) J                                         ",
"                          b l k k h b 4.c.M.B.V.B.c.c.j.f.f.! ! ~ ~ ~ J U ! ! ! ! ! J n ! b                                     ",
"                              b G F H } f.l.f.q.| 2.f.k.f.] c ] ] | ~ J U ! ! ~ Y J f 9 n b d                                   ",
"                                  Y R / 2.| } d.j.j.f.d.d.! f ] 4.) J ~ ! U Y U b k > 4 9 d >                                   ",
"                                    K ~ ) / f.l.j.| } ] d.~ v ^ | U U ~ ) ~ n J f > - g 9 > #                                   ",
"                                    G ) ) ) j.j.| } } | q./ / / { U U ~ ~ U c z d + = h 9 > =                                   ",
"                                    Y [ } } 4.4.} ] ] 2.9.| { { { ] ! ~ ~ U z d > + # j k q &                                   ",
"                                    ~ [ } 2.d.d.g.q.4.q.e.n.z.z.f.] ] ~ U U n f > + X 0 l h > >                                 ",
"                                      / _ <.2.d.g.j.4.q.w.z.c.f.} J ] U Y n b d >   X 3 g h 9 :                                 ",
"                                      ] _ _ [ 4.w.q.f.j.2.g.g.| ] n ] U U n c >     @ 0 j h 6 >                                 ",
"                                        ) ^ / _ { | e.w.2.0.| } ] n Y U c c 9 =     @ ; h j y q                                 ",
"                                        ~ n Y / [ e.0.2.9.[ ! ~ ] n n J f d &         > b V l 6                                 ",
"                                        | ~ ] ] 2.w.z.c.z.f.4.| { ] ! J c > &         6 l v k 6                                 ",
"                                      j.j.d.} [ 2.w.c.c.z.l.f.q.| ] ] J c > c ~       0 l F F 9                                 ",
"                                    f.l.l.q.) ] { [ 4.j.l.k.k.f.| ] n f 9 9 ~ b         h F F 7                                 ",
"                                    4.f.d.4.n c _ / ~ _ 2.<.>.[ Y h 6 d 9 = | b 9       j C H 9                                 ",
"                                    2.<.4.9.} } } Y ) ^ G Y W U G l b 9 : > Y n :     c h J Y 4 =                               ",
"                                    [ _ ' [ 2.[ Y ) 0.2.e.h.g.w.} ~ ~ Y c J n f :     d k Y n 4 :                               ",
"                                    -._ ( ( ( V j / <.e.z.n.z.e.9.Y K Y c 9 9 &       ~ ! J c - =                               ",
"                                  3.3.3.1._ T F j j ;.z.M.n.z.f.9./ G q > 3 - $     J J v ~ J >                                 ",
"                                  1.h.3.3.1._ R H x V W >.3.>.[ [ U f - 6 7 3 -       v J G c k                                 ",
"                                1.<.1.3.-._ ^ R U C j y x H K H Z 6 6 y y w 5 3 4                                               ",
"                                ;.( r.3.1.( L K Z x j y 4 0 j V x j j j r 7 0 5 =                                               ",
"                                ;.1.r.r.3.;.K C V g g g 4 = r M V N j j y r h 4 &                                               ",
"                                _ h.h.3.r.3.R j j h g 7 ; # 5 g V j j h j j 5 & =                                               ",
"                                ^ 3.n.v.3.( F j j 7 6 > & @ 1 r j j v V V j - =                                                 ",
"                              [ ( <.v.3.Q / H j r 5 ;     & 7 j N C C v x 0 6 6                                                 ",
"                              ;.( ;.v.h.( R H l 7 5 >     4 j j V v G G v 0 9                                                   ",
"                              ;.( ;.h.v.T J v c 6 4       d r M l H I F x 0 9                                                   ",
"                              <.<.3.r.g.W v y h 1           l v G Y Y F h q 4                                                   ",
"                              ) [ -./ ( G v 0 w >           j V V H I F h q                                                     ",
"                              ^ H ^ ( ( H C y 4             v M V G H Z y ;                                                     ",
"                              ~ G T ;.;.R H y 4             j V C F H v h >                                                     ",
"                              Y y ( 2.2.] H 0 ,             g j I ^ ~ Y Z 4                                                     ",
"                              R R [ { ` R V 4             t h N I R / W v >                                                     ",
"                              ^ =.=.( K V 0               j M C H C V j 5                                                       ",
"                            L ( ( Q C j y %               g j H V j h 4 *                                                       ",
"                            -.=.=.( C w 4 *               g j j j v j 7 3                                                       ",
"                            ;.1.3.L V r 7                 t j V V V j r 1                                                       ",
"                          ( =.:.:.L V j 7                 M V C C C N h 1                                                       ",
"                          Q ;.1.=.L L M r                 V C V V C C y -                                                       ",
"                          L ;.=.( L C C M                 V l V j j y 0                                                         ",
"                          H T C L R E Q r                 j j j j h 5 *                                                         ",
"                          C G Q :.=.H g 5                 l v C C V g 3                                                         ",
"                          G C =.3.E C j 5                 j M C H V h 3                                                         ",
"                          F Q ;.1.=.R V r               j j M C F V g *                                                         ",
"                          F T R R ( K g 4               j j j V C M k 6                                                         ",
"                          L E ( ( H j h 7             g g r g j v V v h 3                                                       ",
"                          H Z H H K F r *             r g g t g j F K I H v                                                     ",
"                          T T I T T V $                 w t g 8 r j V C K K R H g                                               ",
"                          Z K H C j 5 % O o                                                                                     "
};
