/* XPM */
static char *_1709cefa6b644cca182e0f955cb25fe2YL2YtF48ak6eoTa[] = {
/* columns rows colors chars-per-pixel */
"32 64 123 2 ",
"   c None",
".  c #25211B",
"X  c #2E251D",
"o  c #312A23",
"O  c #382F27",
"+  c #342F2A",
"@  c #382F29",
"#  c #35322C",
"$  c #3B342E",
"%  c #3B3731",
"&  c #42352B",
"*  c #4A372C",
"=  c #4E3B2E",
"-  c #413732",
";  c #433B35",
":  c #493D36",
">  c #453E38",
",  c #4C3F3A",
"<  c #583F32",
"1  c #47413B",
"2  c #4C433C",
"3  c #534035",
"4  c #594336",
"5  c #52443D",
"6  c #58463F",
"7  c #624A3C",
"8  c #6D4F3C",
"9  c #4D4640",
"0  c #4E4943",
"q  c #524742",
"w  c #544A43",
"e  c #5A4C45",
"r  c #544E49",
"t  c #5C4F48",
"y  c #5A5047",
"u  c #56514C",
"i  c #5D524B",
"p  c #5B5751",
"a  c #5F5A53",
"s  c #665240",
"d  c #62544C",
"f  c #68554F",
"g  c #66584D",
"h  c #6D5C4D",
"j  c #725243",
"k  c #755B4A",
"l  c #7C5A4C",
"z  c #645751",
"x  c #645A54",
"c  c #6B5C54",
"v  c #635E59",
"b  c #6D5F58",
"n  c #725F57",
"m  c #71604E",
"M  c #6B6056",
"N  c #66625B",
"B  c #6B645D",
"V  c #6D685F",
"C  c #706057",
"Z  c #72635C",
"A  c #7B645A",
"S  c #70685F",
"D  c #6B6660",
"F  c #6E6962",
"G  c #746761",
"H  c #7A6761",
"J  c #736B65",
"K  c #7B6B64",
"L  c #746F69",
"P  c #7C6F69",
"I  c #77716B",
"U  c #7B746C",
"Y  c #7F796F",
"T  c #7C7671",
"R  c #7E7972",
"E  c #845E49",
"W  c #87614F",
"Q  c #8D6652",
"!  c #8F6A57",
"~  c #946D5C",
"^  c #986D5B",
"/  c #9B715E",
"(  c #A16F59",
")  c #A9775F",
"_  c #816F67",
"`  c #816F68",
"'  c #827067",
"]  c #82736C",
"[  c #89766E",
"{  c #80786F",
"}  c #857770",
"|  c #837B74",
" . c #8C7C76",
".. c #857F79",
"X. c #A37560",
"o. c #A97963",
"O. c #888077",
"+. c #86817B",
"@. c #8B847C",
"#. c #92857E",
"$. c #A58B6C",
"%. c #BD876E",
"&. c #BB8771",
"*. c #C58D76",
"=. c #8B8681",
"-. c #8D8983",
";. c #928C85",
":. c #948F89",
">. c #959086",
",. c #96928A",
"<. c #9B948D",
"1. c #9C9691",
"2. c #9E9A94",
"3. c #A1978E",
"4. c #A39C94",
"5. c #A5A19A",
"6. c #B1A394",
"7. c #AEA9A4",
"8. c #C2AA89",
"9. c #D6C0A9",
"0. c #D0C4B9",
"q. c #D9C8BA",
"w. c #D6CAC4",
/* pixels */
"                                                                ",
"                  F N N                                         ",
"                R N u 0 u i                                     ",
"                T a r 9 u g 8 m $.8.9.q.q.                      ",
"                J v u u M M 5 * k C h 6.  0.w.                  ",
"              P i u u   6 4 8 ) ^ 4 O                           ",
"            P z w       : = / &.^ < o                           ",
"          ] M e r       5 7 ~ / l 4 X                           ",
"        U G i 2         3 W *.) Q 4 .                           ",
"        G z r 2         d ! %./ E = .                           ",
"        z r > 2         ] A o.) 8 $                             ",
"        d 2 ; > 9 J R ;.Y Z A k : ; %                           ",
"          i q 9 2 F +.,.@.N c y % 9 0 u D                       ",
"            y q 9 D 2.5.5.-.R v 0 p a N F D                     ",
"            v r e J 2.7.4.,.=.F F D N D D N v                   ",
"                z G :.=...:.R N T D N D N 0 u                   ",
"                G G | ..;.-.I N Y N D N u 1 1                   ",
"                  D J ;.=.T U N L D F a 1 1 ;                   ",
"                  D L ;.T T Y J F V V u % 1 1 %                 ",
"                  L T ..T T | Y I F N 0 # % 2 #                 ",
"                  I | -.-.+.,.,...L N u # # r ;                 ",
"                  J I ..;.+.;.,.F V a u + # q ;                 ",
"                    L | @.-.#.@.D D v 2   - w >                 ",
"                    G J | +.| R V N u ;   $ w 2                 ",
"                    N V ..O.{ F V a 9 #   ; i q                 ",
"                    I I +.,.:.| I N 9 #   1 r 9                 ",
"                  ,.-.U +.1.,.@.R D 9 p     i e                 ",
"                  ,.-.I U -.,.;.T u 1 v     d w                 ",
"                  -.+.x F L | U p 1 1 N     d r                 ",
"                  R | T J F M B p 0 ; a     a r                 ",
"                  P ' U L ..;.#.I V p u     a w                 ",
"                  U K b c  .<.>.I N 0 %   J N 9                 ",
"                   .] c y O.4.>.U u - O   v v r                 ",
"                 . . .K g M | } Z 1 : -   i x u                 ",
"                [  .P Z c e f M r 2 2 ;                         ",
"                `  .` b d w : e t w 5 :                         ",
"                } #.] c e q % w d e 6 2                         ",
"                 .#. .c e 5 $ , t 6 y &                         ",
"                ] 3.} d 5 - o : e d e $                         ",
"                ] #.G d 2 & $ 5 d d e 1                         ",
"                ] ;.A d 1   > w d d w 1                         ",
"                ] ;.S y :     w d M w                           ",
"                [ #.b 5 >     d M c q                           ",
"                U J z 2       i x c 5                           ",
"                Z K z 5       i d h 2                           ",
"                M ' M 2       d z g 2                           ",
"                c | B 2       e B S r                           ",
"                K U c         y Z S r                           ",
"              A P Z e         d f y :                           ",
"              H K d :         d d 2                             ",
"              ` K e *         e e 5                             ",
"              [ _ w :         e d w                             ",
"            K ] ! t :         f f e                             ",
"            G ' G f 5         f f e                             ",
"            Z _ G f t       i i e q                             ",
"              b n n         e e e ;                             ",
"              C ` d         t d d ,                             ",
"              Z ` d           f z q                             ",
"              P [ c         e d d :                             ",
"              C G d         e t f 2                             ",
"              K Z e         5 w i e ;                           ",
"              c b e         5 6 d b z                           ",
"            b b C 3         5 5 6 f M b                         ",
"            h b d & X                                           "
};
