/* XPM */
static char *_d195f6c886e4a8cc90e09ad39be5456uSEQjl98XCkkMph6[] = {
/* columns rows colors chars-per-pixel */
"64 64 170 2 ",
"   c None",
".  c #3C272B",
"X  c #3F2A2E",
"o  c #422A2D",
"O  c #54362A",
"+  c #442C31",
"@  c #492F32",
"#  c #4D3234",
"$  c #523536",
"%  c #5B3B35",
"&  c #563639",
"*  c #59373B",
"=  c #573839",
"-  c #5C3A3D",
";  c #613E3C",
":  c #6C452E",
">  c #764B2E",
",  c #7B502F",
"<  c #6D4633",
"1  c #65413C",
"2  c #6B443C",
"3  c #6F483C",
"4  c #744A35",
"5  c #7B4D34",
"6  c #70473C",
"7  c #734A3C",
"8  c #7A4D3C",
"9  c #775333",
"0  c #7F5534",
"q  c #7D513C",
"w  c #6F4B41",
"e  c #734C42",
"r  c #765244",
"t  c #7D5341",
"y  c #7E5844",
"u  c #7E5949",
"i  c #804F3E",
"p  c #845535",
"a  c #8A5635",
"s  c #8A5835",
"d  c #85553C",
"f  c #89573C",
"g  c #86593C",
"h  c #8C5A3C",
"j  c #925D37",
"k  c #935D3C",
"l  c #8F623B",
"z  c #966137",
"x  c #96613D",
"c  c #9B633D",
"v  c #A1663D",
"b  c #A4693D",
"n  c #AB6E3D",
"m  c #AE713E",
"M  c #825541",
"N  c #835C46",
"B  c #8A5D43",
"V  c #845E49",
"C  c #905F40",
"Z  c #8F6244",
"A  c #8F6943",
"S  c #8B654B",
"D  c #8D694C",
"F  c #936343",
"G  c #986742",
"H  c #956944",
"J  c #9B6A45",
"K  c #92674A",
"L  c #936B4C",
"P  c #9B6C49",
"I  c #97744D",
"U  c #9D724C",
"Y  c #9D7450",
"T  c #9F7853",
"R  c #A36C42",
"E  c #A57245",
"W  c #AD7443",
"Q  c #AF7947",
"!  c #A4744B",
"~  c #AB7649",
"^  c #A7784B",
"/  c #AC7C4D",
"(  c #B17542",
")  c #B57B45",
"_  c #B97D47",
"`  c #B47D4A",
"'  c #B97F4B",
"]  c #A47B53",
"[  c #AA7E52",
"{  c #BA8147",
"}  c #B3814D",
"|  c #BB844C",
" . c #BE884D",
".. c #AC8356",
"X. c #AD8359",
"o. c #B38452",
"O. c #B98652",
"+. c #B48956",
"@. c #BC8B53",
"#. c #B18758",
"$. c #B58B58",
"%. c #BF9257",
"&. c #BB925A",
"*. c #C1864C",
"=. c #C38A4E",
"-. c #C38C51",
";. c #C49154",
":. c #CA9555",
">. c #CD9856",
",. c #C2955C",
"<. c #C89758",
"1. c #C59A5D",
"2. c #CF9F5D",
"3. c #CD9B5C",
"4. c #D09B5A",
"5. c #D09C59",
"6. c #D09D5A",
"7. c #D19E5B",
"8. c #CFA15F",
"9. c #CDA15F",
"0. c #D3A15D",
"q. c #D2A15F",
"w. c #D1A25E",
"e. c #D4A05C",
"r. c #D5A35D",
"t. c #D4A25E",
"y. c #D5A25F",
"u. c #D7A35E",
"i. c #D6A55F",
"p. c #D4A25D",
"a. c #D9A55F",
"s. c #C99E60",
"d. c #CEA161",
"f. c #D3A662",
"g. c #D7A560",
"h. c #D7A760",
"j. c #D5A663",
"k. c #D4A562",
"l. c #D9A761",
"z. c #D9A760",
"x. c #D8A560",
"c. c #D7A964",
"v. c #D9A863",
"b. c #D9AB63",
"n. c #DCAC63",
"m. c #DEAC63",
"M. c #D9AA65",
"N. c #D9AB66",
"B. c #DDAD64",
"V. c #DEAD64",
"C. c #DEAD65",
"Z. c #DEAF65",
"A. c #DEAE66",
"S. c #DBAC64",
"D. c #DFB065",
"F. c #DEB067",
"G. c #DFB067",
"H. c #E0AF67",
"J. c #E0B065",
"K. c #E0B066",
"L. c #E0B166",
"P. c #E0B167",
"I. c #E1B267",
"U. c #E1B267",
"Y. c #E2B268",
"T. c #E2B368",
"R. c #E2B369",
"E. c #E2B468",
"W. c #E3B468",
"Q. c #E2B368",
/* pixels */
"                                                                                                                                ",
"                                                                                                                                ",
"                                                  I A                                                                           ",
"                                                1.F.S.E %                                                                       ",
"                                              &.F.G.L.*.h #                                                                     ",
"                                            ,.B.E.G.h.( m 4                                                                     ",
"                                          &.R.R.b.:.:.:.i.J $                                                                   ",
"                                        g @.o.-.:.i.R.R.i.Z &                                                                   ",
"                                        E G E >.7.H.x.:.R ; * X                                                                 ",
"                                        } =.E 0.;.| ( k 1 - * X                                                                 ",
"                                        } u.M R ( ( R ; - - * X                                                                 ",
"                                        } i.g ~ :.m R 1 - - * X                                                                 ",
"                                        ' >.k E _ m c ; - - * X                                                                 ",
"                                        } =.n b n m f - - ; * o                                                                 ",
"                                      : | *.v v n n f - ; ; % X                                                                 ",
"                                      < n W i f n W f ; C @.^ -                                                                 ",
"                                      : m c - q m n 8 F 7.W.B.o.1                                                               ",
"                                      4 m Z e h m v 8 ( 7.7.L.H.~ %                                                             ",
"                                      c >.j.f.>.| R f _ -.B @.4.! ; o                                                           ",
"                                    H ,.N.j.&.<.l.q.*.;.$.e v b 2 * o                                                           ",
"                                  x ` / U L [ s.G.R.G.m.[ 6 b k ; % o                                                           ",
"                                  %.m.S.N.N.,.V K -.>.O.E f k ; 8 2 o                                                           ",
"                                9 0.R.B.u.u.,.B G R C 6 h k v ; w % o                                                           ",
"                                < @.>.:.0.l.h.d.7.( ; ; k m C ; * = o                                                           ",
"                                $ x m ;.#.,.l.:.{ g - ; k m k ; - $                                                             ",
"                                # 6 n n 6 d ( n n 6 - - k m v ; - $                                                             ",
"                                $ 1 c m h k n b b e - - k ( C - - $                               J 2                           ",
"                                < q n m v n b 7 h 7 - - k n 8 - - *                             ! m.P =                         ",
"                                p k n m x k v 2 6 3 - - M v 1 - - - $                         : @.S.} ; $                       ",
"                                a v n n e 2 c 6 - - - - 7 f - - - - - $                       , { } g - *                       ",
"                                a v n m v k b 2 - - - - ; ; - ; - - - &         & ; @         0 -.Q d - *                       ",
"                                j h n n k 8 b 2 - - - - ; - - - - - - &       - k x %         g k.' 8 - *                       ",
"                              h 8 8 ) _ d 2 v 3 - - - - ; - - - - - - &     $ f n b ;         p ( h ; - *                       ",
"                            c k ; d *.-.f 2 v 3 - * e ! X.V B +.T V 3 * & & ; h b f * o       z k - - - *                       ",
"                      / p < b 3 * d ` ( d ; 7 - w L 3.H.#.J l.W.N.] M S ..U t ; ; 2 e @       j e - - - =                       ",
"                    @.D.%.q 7 % ; x 4.| d * 1 Z O.,.g.#.r 1.Y.W.$.w o.m.N.,.~ 3 & 8 f &       h w - - - *                       ",
"                  g i.G.J.} 1 - 6 =.m.{ 6 * x ;.$.Y ] S H >.l.Y.j.! _ :.} Y ~ k ; ; % *       j 1 ; ; - *                       ",
"                  x D.E.J.H.] - g e.3.R 2 d | b.H.H.H.M.b.0.;.;.3.J k ` b.G.U g 7 - - - @   > f ; C 6 - *                       ",
"                  q %.W.L.L.b.S 7 W m d 7 @.B.R.W.R.N.s.&...V q 2 2 k ! @.! 1 6 g - - - $   > 8 7 R 6 ; *                       ",
"                  : I b.n.L.E.%.1 8 g - q 0.R.B.3.#.L V L L r r V ] ! 6 2 % * 3 k - - - #   f 6 f b ; ; *                       ",
"                  5 H 0.[ c.W.c.q - - - 2 ~ >.:.| :.d.d.B.R.S.c.N.b.J - - - - w M - - -     < ; h x 1 - *                       ",
"                  p G -.] ..B.S.^ - - - - h =.u.D.W.1.X.S.N.i.3.:._ C - - ; - - M 2 - *     $ ; c q - - =                       ",
"                  p n W ` y ......- - - - 6 n ( *.| r H { ) m m n n C ; - - - - M 2 - - +   * ; G 2 - - *                       ",
"                  s >._ n 7 1 r H - - - - 1 c n n b 8 5 n m m h i n C - - - - - 6 e - - # . * * 2 - - - *                       ",
"                  l i. .n 8 3 1 f 2 - - - - x m n n v 2 k m n k i b v ; - - - - ; M ; - * # - M 8 - - - - #                     ",
"                  p { m n 8 - - 7 g - 1 - * q b m m v 1 7 b n v 6 v b w - - - - * t ; * * ; ; M 8 - - - * @                     ",
"                p O.i.( x 7 d M ` ;.O.o.U Z 8 3 k b d - ; d m v 3 f b 3 - ; - - * e e ; - * * - ; - - - - @                     ",
"              p -.L.3.m ~ Q e.:.:.R.W.W.L.N.3.X.N 6 ; - - ; k n d 6 v 3 - ; - - * - ; ; 2 e M ; - - - - - #                     ",
"              o.E.,.J m a.3.} / Y L.W.L.N.1.R.W.3.M - - - - 8 n f - d 3 - - - 3 M B J ! J ] @.+.V ; - - - &                     ",
"              <.9.J c k *.b.&.V r ] 1.8.! s.H.7.J f 1 6 6 - ; c f - - - - 2 B U O.d.B.H.q.] S D [ f - - - *                     ",
"              Z K c k q n _ ;.3.+.u 3 n B [ _ d % h ~ :._ i - 8 8 - - ; H ;.N.N.1.j.R.H.R.H.s.P -.k - - - *                     ",
"              2 8 n h d n n b m _ B 3 b C x k ; ; +.m.F.x.R ; ; - - 2 E b.W.E.R.h.8.>.N.s.j.g.( F d w - - - @                   ",
"              d k n 8 i n k 1 d n f f n b n k - r j.4.7.*.e - - - - K n.R.F.1.] U ;.a.B.' o.W 7 - d 6 - - - @                   ",
"              k b n 7 ; R v 7 j m f h d f b q - w [ _ ( h ; - - - - J -.T ^ r ] c.N.e.} M 3 ; - - k M - - - $                   ",
"              b n n 6 ; k n h k n v x 1 1 c e * 6 -.-.n 7 * - - - - d ~ ,.0.] r J ( m c 1 - - - - f k ; - - - * #               ",
"              b m h ; * k k ; 8 n m x - - k 8 * B 7.*.W i - ; - - - ; R =.*.! ; f m n n e - - - - 7 b 3 - - - - $               ",
"              b c 2 * ; c q * 3 n n x ; - 6 3 - J :.( n x ; - - - - ; G m n b ; k m x h q - - - - - k g - - - - $               ",
"              c 2 - * 2 v 6 = 2 b m c ; - - % 6 { ) n n b 7 - - - - - k m n v 2 k n k 3 f ; - - - - 1 h w - - - #               ",
"              4 & - - 8 h - = - 6 k k - - - 1 c n n n n n h - - - - - 8 b n b f v n n v b 8 - - - - * 1 * - - * #               ",
"                    X O                                                                                                         ",
"                                                                                                                                ",
"                                                                                                                                ",
"                                                                                                                                ",
"                                                                                                                                "
};
